<svg version="1.1" id="Ebene_1" xmlns="http://www.w3.org/2000/svg" xmlns:xlink="http://www.w3.org/1999/xlink" x="0px" y="0px"
	 width="845.582px" height="458.254px" viewBox="0 0 845.582 458.254" enable-background="new 0 0 845.582 458.254"
	 xml:space="preserve">
<svg xmlns="http://www.w3.org/2000/svg" xmlns:xlink="http://www.w3.org/1999/xlink" version="1.1" id="Ebene_1" x="0px" y="0px" width="845.582px" height="458.254px" viewBox="0 0 845.582 458.254" enable-background="new 0 0 845.582 458.254" xml:space="preserve">

<g id="Ebene_2">
	<path fill="#FCFBE9" stroke="#FCFBE9" d="M402.875,42.567c0,0-6.125-5.75-18.625-1.875l-2-0.875c0,0-11.125,2.125-13.75,5.375   s-4.625,1.25-11.5,7.75c0,0-4.125,2-5.125,2.625s-5.125,3.5-5.5,4.125s-4.125,2.625-4.5,3.25s-10,6.625-10,6.625   s-10.125,4.5-11.25,5.625s-2.875,3.625-2.625,4.875s-4,2-4.5,1.875s-3.125-1.75-3.875-1.625s-3,0.75-3.625,1.125   s-2.875,0.5-4.625-0.125s-7.375-1.25-7.875-1.5s-10.75-2.25-11.25-2.375s-1.875-0.5-2,1.625s-0.375,6.5-0.375,7.375   s0.75,6,3.375,9.75s3,7.25,2.25,8.25s-5,8.625-7.125,10.125s-4.125,2.25-4.125,2.25s-0.5,2.375,0.125,3.875s-2.25,2-3.625,2.75   s-5.5,2.625-6,3.75s-1.625,2.875-1.125,3.375s0.875,1.25-0.375,1.875s-3-0.25-3,1s1,5.5,1.75,6.625s4,9.625,4.375,10.125   s4.625,3.125,3.75,6s-2,2.625-2.375,3.25s-2.5-0.875-2.875-3.375s-1.75-5.625-2.5-6.5s-3-7.125-4-6.375s-1.75,1.5-2.5,3.125   s-0.25,4-0.25,5.125s-0.375,3.5-0.75,4.25s-2,2.875-2.75,3.375s-4.125,0.375-4.875,0.25s-0.625-1.375,1-2.25s2.625-0.375,3.125-2.5   s1.375-2.5-0.125-3.125s-2.25-0.375-1.25-1.75s0.875-3.625,1.375-4.25s1.875-3.75,2.25-4.25s1.25-3.875,0.875-5.375   s-1-2.375-2.125-1.875s-2,2-2.25,2.5s0.25-2-1-2.5s-2.5-0.875-3.375-0.625s-3.25,0-4.125,0.625s-2.125,1.875-2-1.125   s-0.875-4.5,0.125-5.125s1.875-0.25,2.75,0.625s3.625,1.375,4.875,1.875s6,1.25,6.625,0.25s3.625-1,5.25-3.875s7.125-6.5,8.375-7.5   s3-3.625,3.125-7.25s1.375-5.25,1.875-6.375s2.875-7.5,2.25-8.5s-2.875-2.375-3.5-5s-1.25-5.25,0-7s3.375-0.875,0.75-2.875   s-5.875-3.75-6.5-4.875s-3.125-3.75-4.125-4.875s-1-1.5-3.625-2s-7.75-1-9.5-0.5s-8,0.5-11.5,2.25s-12.875,7.25-16.5,10.5   S208,94.692,203.75,95.442s-5.5,0.25-6.625,1s-0.75,5-2.375,4.5s-2.125-1.25-2.875-0.25s-0.375,2.5-1.625,2.125s-1-1.25-2.25-0.25   s-2.625,2.75-4.125,2.875s-1.75-0.25-3.5,0.25s-3.5,3.375-4.125,4.125s-3.25,1.75-3.25,3.25s-0.75,2.875,0.25,3.875   s1.375,2.125-0.5,2.375s-1.875,1.5-1.875,2.75s0.625,4,0,5.75s-3.125,2-3,2.75s1.625,1,1,3.125s-2.25,3-2.375,2.125   s0.875-0.625-1.375,0.25s-7,3.375-8.125,4.75s1.125,6.625-1.625,10.75s0,6.375-1.125,8.5s-0.375,5.125-1.875,6.75   s-2,2.875-2.375,3.75s-1-0.75-2,1.125s-1.25,5.125-2.125,6.375s-3.625,7.875-4.125,8.75s-2.5,4.25-3.375,3s-1.125-1.875-1.25-0.5   s0.75,1.5-0.75,2.125s-2.125,0.125-1.875,1.25s0.375,1.25-0.25,2.625s-2.625,3.75-3,4.625s-3,4.125-3.5,6s-0.625,3.75-1.625,4.75   s-9.625,12.5-10.25,13.125s-2.375,2.5-2.875,3.75s-1.125,3.5-0.125,4.5s3.625,1.875,2.625,3s-1.875,0.5-2.25,1.875s-0.25,5-1,6.375   s-3.5,10.875-4,12S89.125,306.942,89,307.442s-4.125,4.875,2.625,14.125s4.5,9.625,12,9.625s26.25-0.875,26.25-0.875   s4.625-2.125,5.25-5.75s-0.25-6.625-2.375-7.625S123,299.817,123,299.817l-9.75-15c0,0,4.125-6.75,4.5-6.5s6.5,7.125,8.625,7.25   s5.625-4.25,7.25-6s2-3.875,3.25-3s2.125,1.5,2.625,2.75s-8,9.25-8.25,10s2.25,4,3.375,4.625s1.375,2.75,5.375-1.25   s5.25-7.875,6.875-7s-0.375,4.25-2.5,6.25s-7.5,7.5-7.875,8.25s1,3.375,2,3.625s2.375-2.125,3.625-1.125s2.5,2.375,3,3.125   s-1.375,2.5-1.75,3.125s9.25,11.875,10,12s5.375-3.5,6.125-3.375s2,3.375,3.125,2.625s12.25-8.625,11.75-9.625   s-4.875-4.875-5.625-6s-2.25-2.75-2.625-10.375s6,0.25,7.375,6.375s7.5,7,8.875,8.125s3.625-0.625,3.625-1.875   s-2.25-16.25-1.875-16.75s3-1.625,3.125-0.625s0.25,14.25,1.25,14.625s14.625,0.125,15.375-1s-1.25-11,2.375-11.875   s6.5,2.875,7.75,4s3.625,3.25,3.25,5s6.125,2.125,7.375,1.25s3.25-8.875,2.875-9.625s5.625-3.125,9.375-0.875   s9.75,5.875,10.375,7.375s6.625,4.75,7.875,4.625s0.5-6.375-0.5-8s-3-1.875-3.25-2.25s6.5-16.75,8.125-18.625s3.875-7,4.5-8   s2.875-2.75,2-0.25s-1.25,7.375-2.375,8.375s-6.5,9.25-6.625,10.875s0.25,4.875,0.875,6.5s1.125,7.5,3,9.25s13.25,5,15.625,4.875   s17.625,6.125,23,1.75c0,0,1.375-0.5,1.125-1.125s-4.125-10-4.375-10.75s2-1.25,2-1.25s4.5,10,6.375,11.75s4.875,4.5,5.125,5.125   s-2.25,6.125-2.25,6.125l17.75,11.375c0,0-1.875,7.875-3,8.25s-16.875-7.75-16.875-7.75l-1.75,2.25c0,0-5-1.25-5.25-0.5   s-1.75,2.375,0.875,3.875s15.125,6.75,16.5,8.875s2.75,5.125,3.125,5.75s4.375,2.625,4.375,2.625s1.875,3.25,10-13.25l2.375-3.375   l22.625,14.125l2.375-2.375l2.125,2.75l-0.875,4.5l1,0.5l10.5,4l2.75,2.625l3.625-5.25c0,0,3.625,1.125,5.375-0.5   s3.625-1.5,4.5-0.25s-0.5,5.625,9,5s16.125-2.875,18.875-6.625s3.875-4.125,10.375-0.25s9.125,7,10.125,7.25s-0.25-4-0.25-4.625   s0.75-2.125,2.375-0.875s3.875,4.25,6.375,6.5s3.125,3.375,2.375-1.375s-1.125-14.375-0.5-15.375s5.625-1.5,6.125,0.5   s1.75,5.625,5.875,5.375s10.5-4.875,12.625-6.75s8.375-4.875,6.875-8.125s-4.625-5.75-7.5-7.375s-6.5-4-8-3.625   s-1.75,0.625-2,2.875s-2.625,4.125-4.5,5.25s-4.625,2.375-6.25,2s-2.75,2.625-3.5,3.5s-1.75-1.375,0.5-6.625s3.25-2.25,3.25-2.25   s1.125-3.875,0.125-4.875s-2.375-3.375-0.25-3.875s12.25,0.25,14.625-0.375s2.625-0.375,3.125-1.125s-2.625-10.625-0.25-14   s5.5-5.5,5.375-6.75s-4-2.625-1.875-3.75s3-0.875,4.125,0.5s3,1,3.125,2.875s2.25,4.75,3.375,5.25s4,0.875,5.125-0.375   s3.625-0.75,2.5,0.25s-2.375,2.625-4.625,2.5s-5.375-1-7.125-1s-2.75,0.625-4.5,1s-3.625,0.375-3.375,2s2,6.375,2,7   s3.25,10.625,4.875,11.875s7.125,6.5,8.125,6.5s1.375-2.25,2.875-3.5s5-2.375,5.875-3.125s6-4,7-4.75s3.75-4.25,5-3.5   s3.875-0.25,6-1.75s10-5.375,11.5-6.375s24.25-8.625,25.125-9s45.625-13.625,47.125-13.625s25.25-6.625,26.5-6.875   s12.25-2.625,15-2.125s8.375,4.125,12.25,4.875s13.75-0.125,13.75-0.125s16.625,4.75,17.5,4.5s10.25-6.875,15.5-6.75   s11.75-1.375,13.75-1.25s2-5.75,2.5-6.375s5.875-1.125,7-0.375s0.25,4.625,2.875,5.375s5.25,1.375,5.125-0.875   s-1.125-11.625-1.125-11.625l-23.125-1.375l-11.125,4.25l-7.125-0.625c0,0-1.375-2.625,0.25-2.75s10.625-0.375,12.125-2.625   s8.5-10.375,8-18.125c0,0-0.375-0.875-5.125-3.75s-3.125-4.125-2.5-5.5s13-28,13-28s20.75,7.75,21.625,8.375s2.125,0.625,2-0.125   s-9.125-8.125-12-8.75s-15.125-7.625-15.75-7.25s-2.375,2.5-4.375,1.125s-3.625-2.875-3.25-3.75s-4-1.625-4-1.625s-1.625,1.5-3.5,1   s-6.875-0.625-5.75-3.125s5-0.5,4.875-2.375s-1.5-0.125-2.875-2.875s-9.625-20.25-9.625-20.25s-5.25-6.875-17.375-7.625   s-16.625-0.875-18.625,0s-6.375,2.875-6.625,4s-0.25,3.375-1.75,4.25s-7.25,5.625-7.75,6s-0.75,3.25-0.75,3.25l-2.75-1.75   c0,0,0.375,0.625-4.75,0.625s-8.5,0-9.75-0.25s-9.125-0.875-17.75-7.125s-9.625-5.75-13-14.375c0,0-5.5-8.25-9.625-5.75   c0,0-5.625,2.25-6.625,2.875s-7.5,3-4.75,0.625s6.75-4,8-5s1.625-1.875,0.375-2.125s-12-6-13-7.625s-7-9.875-7.5-14.75   s-0.875-7.375-3-7.5s-6,0.25-7.875,0.875s-11.25,4.625-12.5,6.875s-2.375,5.5-3.5,7.5s-4.75,5.5-5.75,6.5s-2.25-1.125-2.25-1.125   s5.875-6.625,5.375-7.625s-2.75-2-5-2.375s-8.5-3.25-10.625-3.625s-4.5,0.75-5.125,1.25s-4.125,0-5.375-1.375   s-7.125-5.5-7.375-7.25s-3.25-4.75-6.75-4.625s-7.25,0.5-8.125,1.25s-4.5,8-5.125,8.5s-12.625,13-13.375,14.375   s-7.375,7.75-10.25,8.25s-2.25,0.875-4.25,1.75s-0.25,6.125-4.125,6.5s-8.875,1.125-8.375-1.375s1.375-2,1.75-2.875   s-0.75,0-1.625-2s-1-2.25,1.125-3.625s4.875-1.375,2.625-2.5s-2.5-1.75-4.25-0.75s-4,0.75-5.375,1.625s-1,3.875-2.625,3.875   s-3.5,2.5-1.625-1.75s0.625-4.25,3-6s6.125-4.375,7.125-4.375s4.25,0.625,6.125,1.625s4.5,2.5,6.375,2.25s9.25-2.5,9.25-3.875   s-2.75-4.75-1-5.375s2.875,0.125,4.75-1.25s2.875-3.625,2.625-5.375s-1.875,0,2.25-2s5.875-4.5,6.125-6.75s0-2.5,2.875-5   s7-5.875,7.25-7.75s-0.625-6-5.375-9.5s-3.25-6.5-5.375-5.75s-2.125,0.5-3.125,1.625s-4,1.5-2.5-0.375s3.375-2.125,4-3.875   s1.625-2.875-0.25-4.625s-2.5-3.25-4.25-3.25s-3.5,1.625-5.5,1.5s-3.375,1.125-4.625-0.125s-2.5-2-0.375-2.25   s4.125,0.5,5.625-0.625s3.5-1.5,2.5-3.25s-2.25-4.75-3.5-5.625s-5.125-3.625-7.25-4.75s-5.75-3.5-7.375-4.375s-5.75-3-7-3.125   S420,55.067,420,55.067l-1.875-0.625l3.25-6l-10.25-5.5l-4.625,8l-2.625-1.625c0,0,0.125-3.125,0-3.5s-2.625-0.25-2.625-0.25   l-2.5,2.875l-1.25-0.875C397.5,47.567,400.625,44.067,402.875,42.567z"/>
	<path fill="#FCFBE9" stroke="#FCFBE9" d="M458.5,70.942c0.586,0.251,6.5,5.625,7.625,8.75s4.25,4.875,4.875,5.875   s1.125,2.375,0.5,3.5s-1.75,3.875-4.375,0.625S463,85.317,462.5,83.317s-0.125-4.125-0.75-5.75s-4.125-4.625-4.125-5.625   S457.625,70.567,458.5,70.942z"/>
	<path fill="#FCFBE9" stroke="#FCFBE9" d="M485.125,99.942c0,0-9.75,4.875-9.25,6s0.625,2.75,4.625,4.5s4.875,4,5.875,5.375   s3.625,3.625,6.125,4.125s5.875,1,7.5,1.375s6.375,2.625,8.625,2.875s6.125,1.5,7.5,1.25s2.5-0.625,3.25-2.5   s2.125-2.875,0.75-4.125s-9.5-6-11.625-7.25s-11.375-8-13.25-9.25s-4.875-3.125-4.875-3.125s-0.875,2.625-2,2.25   S485.125,99.942,485.125,99.942z"/>
	<path fill="#FCFBE9" stroke="#FCFBE9" d="M549,122.067c0,0-2.375-0.375-1.5,1.875s3.25,9.25,4.75,10.25s4.375,3.5,5.625,3.625   s0.375,1.75,1.875,2.75s3.625,1.875,5,1.75s1.75-0.25,2.375,0.625s-1.125,1.5,1.25,2.25s3.5,0.875,3.875-0.875   s-1.625-2.625-2.875-4.25s-6.5-6.375-7.5-7.375s-5.5-4-6.875-5.125S549,122.067,549,122.067z"/>
	<path fill="#FCFBE9" stroke="#FCFBE9" d="M593.25,136.692c1.375,0,2.375,0,2.875,0.375s0.5,1.5,0.875,2s1.375,1.875,2.25,2.375   s0.25,0.375,1.375,1.125s4.25,1.375,4.75,1.75s0.75,0.375,1.25,1.125s0.625,1.125,0.625,1.625s-0.125,2.125-0.5,2.625   s-1.375,1.375-2.375,0.125s-0.5-1.625-2.75-3.25s-2-1.375-3-2s-2.25-2-2.625-2.5s-0.5-0.375-1.125-1.5s-0.375-0.75-0.75-1.75   S593.25,136.692,593.25,136.692z"/>
	<path fill="#FCFBE9" stroke="#FCFBE9" d="M577.133,105.598c-1.592,0.29-1.914,0.261-2.461,1.303s-0.725,1.882-1.304,1.592   s-0.577-1.013-1.592-0.868c-1.014,0.145-1.448,0.579-1.593,1.013c-0.146,0.434,0.328,0.687-0.561,1.429   c-0.888,0.742-1.757,0.887-2.625,0.887c-0.867,0-3.039,1.014-3.039,1.014s-0.249,0.804,0.164,1.85   c0.414,1.046,0.993,1.48,1.718,2.204c0.724,0.724,1.014,1.158,1.157,2.171c0.145,1.013,1.375,2,1.375,2l1.23,0.75   c0,0-0.146,1.158,1.303,1.158s3.619,0.724,4.198,0.29s0.146-0.724,0.869-1.303c0.723-0.579,1.736,0,1.013,0.434   c-0.723,0.434-0.607-0.041-0.738,0.921c-0.13,0.962,0.459,1.591,1.25,2c0.791,0.409,2.24,0.843,2.818,0.698   s1.014,0.145,1.303,0.724c0.289,0.579,0.205,0.84,0.754,0.203c0.55-0.637,1.5-1.625,1.5-1.625s1.044,1.459,0.625,1.875   c-0.418,0.416,0.45,0.416,1.029,0.85s1.158,1.158,1.158,1.158s1.882,1.014,2.461,1.014s1.598-0.425,2.102,0.729   c0.505,1.154,0.938,1.443,1.662,1.153c0.725-0.29,0.724-0.869,1.593-0.579c0.868,0.29,1.158,1.158,2.026,1.592   s1.448,0.869,1.882,1.737c0.435,0.868,0.868,1.593,1.304,2.461c0.435,0.868,0.434,2.026,0.867,2.605   c0.435,0.579,1.836,1.537,2.751,1.158c0.915-0.379,1.889-0.273,2.026-1.013c0.138-0.74,1.013-0.29,1.447,0.579   c0.434,0.869,2.026,2.75,2.026,2.75s1.014,2.172,1.447,2.606c0.435,0.434,2.047,0.774,1.882,1.737s-1.157,1.593-0.435,2.027   c0.723,0.434,1.882,0.579,2.896,0.434c1.015-0.145,2.315-0.145,3.186-0.145s2.751-0.435,3.475-0.869   c0.725-0.434,1.882-1.014,2.461-1.158s0.29-0.579,0.579-1.013c0.289-0.434,0.579-0.145,1.447,0.29s0.434,0.434,1.447,0   c1.013-0.434,1.447-1.303,2.315-1.592s1.919-1.858,2.316-0.435c0.396,1.423-0.073,0.821,0.396,1.424   c0.471,0.603,1.629,0.313,1.629,0.313s0.868-1.158,1.304-1.592c0.435-0.434,2.315-0.435,2.896-1.158   c0.58-0.723,0.768-1.31,0.673-1.813c-0.094-0.503,0.5-2.25,0.5-2.25s3.844-1.944,4.375-2.125c0.532-0.181,0.532-0.905,1.835-0.905   c1.304,0,2.896,0.869,2.896,0.869s0.289,0,2.025,0c1.737,0,1.015,0.435,2.462,0.869c1.446,0.434,2.461-1.158,4.486-1.158   c2.026,0,1.159,0.868,2.172,0.724c1.014-0.144,0.577-1.882,2.46-1.882c1.884,0,2.606,0.724,3.187,0.29s0.289-0.145-0.436-1.158   c-0.724-1.013,0-4.922,0-6.225c0-1.303-0.215-1.252,0.037-2.797c0.252-1.545-1.049-3.427-1.773-4.151   c-0.726-0.724-2.674-1.225-3.727-0.974c-1.052,0.251-1.195,0.829-2.354,0.829s-0.662-1.689-1.158-1.737s-2.237,0.908-2.237,0.908   l-2.75,0.375c0,0-2.251-0.704-3.119-0.704c-0.867,0-2.025,0.579-3.328,0.579c-1.304,0-2.896-0.58-3.619-0.724   c-0.724-0.144-1.304,0.29-3.186-0.29c-1.882-0.58-3.719-0.987-4.248-1.362c-0.528-0.375,0.057-1.533-1.25-0.375   c-1.306,1.158-2.754,1.882-4.779,1.592c-2.026-0.29-4.269-1.29-4.596-0.717c-0.326,0.573-1.633,0.835-2.5,1.5   s-3.763,0.81-4.774,0.665c-1.013-0.145-3.476,0.145-4.344-0.145c-0.867-0.29-0.867-1.303-1.882-1.882   c-1.014-0.579-1.447,0.724-3.619,0.579c-2.171-0.145-4.594-1.421-4.486-1.882c0.106-0.461-1.014-1.303-2.026-2.316   c-1.013-1.013-1.158-2.461-2.896-3.04c-1.738-0.579-4.198-0.579-4.198-0.579s-2.896-1.014-4.776-1.593s-3.939-1.786-5.372-2.558   C580.318,107.046,577.133,105.598,577.133,105.598z"/>
	<path fill="#FCFBE9" stroke="#FCFBE9" d="M708.125,112.442c-0.267-0.265-0.25,3.625-0.75,3.875s-1.875,1.375-2.375,2   s-0.875,1.125-1.25,2.25s-0.375,0.875-0.375,1.875s-0.5,0.125,0.25,1.875s1.5,2.625,2.125,3.25s-0.875,0.25,1.25,0.875   s2.5,0.625,3.75,0.625s2.375-0.25,3.875,0.125s2.75,0.5,3.125-0.125s1,1.5,0.75-1.875s-0.125-2.5-0.375-4s0-1.125-0.375-2.125   s0.25,0-1.25-1.875s-2.125-2-3.25-2.5s-0.875,0-2-0.5s-2.25-0.875-2.25-0.875S709.625,113.942,708.125,112.442z"/>
	<path fill="#FCFBE9" stroke="#FCFBE9" d="M722.25,109.567c-0.875,0.25-1,0.375-1,1s0.25,2.125,0.375,2.625s0.375,1.875,0.625,3.25   s0.625,5.5,0.875,6.125s2.25,2.25,2.5,2.625s0.125,2.125,0.125,2.5s-1.25,2.875-1.625,3.375s-1,1.5-1.625,2.25s-2.25,3.375-2.25,4   s0.75,2,1.375,2.25s2,1.125,2.625,1.875s1.5,1.375,2.75,1.625s1.75,0.5,3.375,0.625s2.125,0.625,2,1.125s0,1.25,0.25,1.625   s0.875,1.375,1.5,2s0.875,1.375,0.375,1.75s-1.375,1.25-1.375,1.75s0.5,1.375,1.625,1.625s2.75,0.25,2.75,0.25l2,0.25   c0,0-1.625,1.125-2,1.25s1.25,1.375,1.75,2s1,2,1.5,2.375s4.375,5.5,4.625,6s3.125,5.125,4.125,6.125s4.625,6,5.375,6.125   s3.75,5.375,7.25-0.375s3.75-6.375,6.875-7.25s10.125-3.5,13.5-4.375s8.25-2.5,10.625-1.875s4.875,1,6.375-1.375   s2.375-4.125,2.75-7.875s3.125-12.125,3-13.875s-0.125-4.75,0.25-5s-2.125,0.5-3.25,0.25s-0.875-1,0.875-1.25   s1.75,0.875,2.875-0.875s2.75-2.375,2.375-3.625s-2.125-1.25-2.375-2.5s-1.125-3.125-1.75-3.875s-1.75-4.125-3.125-5   s-6.5-5-9.375-6.875s-5.625-4.75-7.875-6s-1.25-1.5-5.75-2.625s-7.25-1.25-8.125-2s-3.625-2.125-4.875-2.125s-2.5,0.375-3,1   s-0.625,1.5-1.375,2s-2.625,0.75-2,1.5s1.5,1.75,1,2.25s-0.75,0.625-2.75-1s-2-3-5.375-3.125s-4.25,0.125-4.875-0.125   s-0.375-2.375-2.625-1.75s-2.375,2.75-2.75,3.5s-1.625,2.375-2,2.875s-1.625,1.5-2.875,2.125s-3.25,2-4.625,1.875   s-3.75-0.5-5.5-0.5S722.25,109.567,722.25,109.567z"/>
	<path fill="#FCFBE9" stroke="#FCFBE9" d="M759.375,96.692c-0.125,0.375-0.25,1.875,0.375,2s1.75,0.375,1.875-0.625   s-0.625-2.625-1.25-2.25S759.375,96.692,759.375,96.692z"/>
	<path fill="#FCFBE9" stroke="#FCFBE9" d="M424.5,358.942c-0.625,0-4.875-0.125-5.5-0.125s-3.125,0.125-3.5,0.375   s-0.625,0.5-2.375,1.25s-3.5,2-4.375,2.5s-2.125,0.875-1.875,1.75s0.5,2.125,2.5,3s7.25,3.5,8.125,3.5s1.25-0.25,2.75,0.125   s4.375,0.5,5.875,0.375s1.25-0.625,3.375-0.625s4.125-0.125,4.25-1s0.125-2.5-0.625-3.125s-5.375-3-5.875-4.25   s-1.125-2.375-1.625-2.875S424.5,358.942,424.5,358.942z"/>
	<path fill="#FCFBE9" stroke="#FCFBE9" d="M381.75,364.442c1.736,0.248,5.125,1.375,6.625,1.375s3.75,0.5,5.125,0.375   s1.625-0.375,3.375-0.5s1.875-0.375,2.25,0.125s2.75,3.375,4.625,3.875s5.25,2.25,6.875,2.75s3.75,1.875,5.375,1.625   s2.625-1,3.25-1s0.75,0.875,2.25,1.25s2.375,0.75,4.5,0.625s2.25-1.125,3.75-1.125s3.5,1,4,1.375s0.25,1.375,2.375,1.375   s5.875-0.625,6.375-0.625s1.75,0.75,2.25,1.25s0.5,1.125-0.375,2.375s-3.75,5.125-4,5.625s-2.5,3.75-3.25,4.625   s-0.625,2.125-1.75,2s-2.125-0.125-1.625-1.5s0-3.375-0.625-3.5s-1.75,1.25-1.875,1.75s-0.5,2.375-0.375,2.875   s2.25,1.625,2.125,2.5s-1.125,1.625-2.25,1.75s-3-0.75-4.25-0.25s-3.75,1.75-4,2.125s-1.25,2.375-1.875,2.125   s-1.625-1.5-3.125-3.375s-2.375-2.875-3.875-3.625s-3.5-1-4.375-2.125s-0.75-2.125-1.875-2.875s-1.375-0.375-3.375-2   s-4.625-3.125-5.625-4.25s-2.875-3.375-4.5-4.25s-2.625-1.375-4.125-2s-4.875-2-5.5-2.625s0-1.75-1.25-3s-2.125-2.125-2.125-2.875   S380.875,364.317,381.75,364.442z"/>
	<path fill="#FCFBE9" stroke="#FCFBE9" d="M386.25,357.442c0,0.5,2.25,2.75,2.25,2.75s0.5-0.125,0.375-1.125   s-0.25-1.625-0.625-1.875s-0.25-1.625-1.25-0.875S386.25,357.442,386.25,357.442z"/>
	<path fill="#FCFBE9" stroke="#FCFBE9" d="M308.5,396.567c0.875-0.125,3.5-1.125,5-0.25s2.375,2.375,3.375,3.25   s4.5,3.75,4.875,4.125s1.75,1.625,2.25,2.125s3.5,2.25,4.125,2.625s2.125,1.375,2.625,2.25s2.25,3.375,3,4.25s2.75,3.75,3,4.375   s0.875,1.25,0.375,1.5s-2.5-0.375-4.875-1s-4.75,0.5-4.75-0.75s-0.125-3-1.875-4.75s-4.75-3.125-6.125-3.75s-5.125-1.25-6.125-1.25   s-2.625,0.125-3.25-0.625s-1.75-2.25-2-3.875s-1-5.125-0.625-6.625S308.5,396.567,308.5,396.567z"/>
	<path fill="#FCFBE9" stroke="#FCFBE9" d="M310.375,411.567c-1.25-0.625-2.125-1-2.875,0s-1,1.625-1.25,2.625s-1.75,2.625,0.75,3.25   s6,2.25,6.5,2.25s3.125,0,4.5,0s1.375-0.125,1.875-0.875s0.25-0.875,1.625-1.75s1.875-1.375,1.625-2s-1.125-1.25-2.125-1.75   s-3.125-1.5-4.875-1.5s-3,0.375-3.5,0.375S310.375,411.567,310.375,411.567z"/>
	<path fill="#FCFBE9" stroke="#FCFBE9" d="M241.334,298.275l-2.667-0.5c0,0-0.833,0-1-1s0-1.667-0.5-2s-1.333-0.167-2,0   s-2,1.167-2,1.167s1.5,2,3.167,3s3.333,3.666,4,3.333s1.667-1.833,1.667-2.333S241.334,298.275,241.334,298.275z"/>
	<path fill="#FCFBE9" stroke="#FCFBE9" d="M210.167,293.942c0,0-1-1.833-2.167-1s-2.333,1.666-2,2.833s0.667,2.168,1,3.334   s2.5,4.833,3.5,4.833s2.167,0.501,2.833-0.833s1.167-2.166,0.167-4S210.167,293.942,210.167,293.942z"/>
	<path fill="#FCFBE9" stroke="#FCFBE9" d="M227.334,315.442c6.167,0,18.333,4,20.167,4s7.5,0.833,8.167,3.333s0.833,5.666,1.167,7   s4.333,3.167,7.167,4.667s4.5,2.333,6.333,3s7.667,7.333,7.667,7.333s0,2.001-3.667,2.834s-5.167,2.5-6.5,3.333   s-3.833,0.167-5.667-0.833s-8-3.334-9.167-3.667s-0.333,2.5,0,3s0.833,3.667,1.833,4s2.833,2.667,2.833,3.167   s0.666,0.832-3.167,2.666s-5.167,4-6.167,4.667s-6.833-3.833-6.833-3.833s-4.833-2.168-8.667-4.334s-7.167-3.5-8-2.5   s-1.167,1.834-0.667,2.834s3.667,3.5,4.167,4s3,1.334,4.667,2.5s2.834,1.832,3.167,2.666s0,2.334-0.333,2.834   s-13.833,6.167-14.5,6.5s-8.333,4-8.833,4s-5-2.167-5-4.167s-1.5-11.333-2.167-13.333s-1.333-4.166-2.167-4.5s-4.333-0.5-5.5-1.167   s-3.334-2.501-4.667-3.667s-2.833-0.5-3.5,0.167s-5.667,7-5.667,7.5s0.667,2.333,1,2.833s11.667,8.668,12,9.334s2.5,5,2.833,8.333   S198,384.441,197,384.775s-20,8.5-20.5,8.667s-8.5-0.333-9-1.333s-15-26.834-15-27.334s-3.5-4.666-4.667-5.833   s-3-2.499-2.667-3.333s1.333-5.333,3.833-6.5s15.5-12,18.833-14s6.833-7,8-8.167s1.833-2.001,3.833-2.167s3.167,0.334,4.667-0.166   s10.333-6.001,11.167-6.834s1.667-2.333,2.333-2.333s4.333,3.167,6,2.5s3.167-1.5,3.667-1.5s0.833,2.499,0.333,3.333   s-2,4-3.5,4.667s-2.833,3.167-3.167,4s-2.167,5-3.5,5.5S189,339.609,189,339.609s2,1.5,2.333,2s4,4.166,4.5,4.166   s6-6.333,7.167-6.333s2,2.833,3.333,2s2.167-7.999,3.833-9.833s8.333-6.001,8.833-6.834s1.333-1.499,2-3.166   s-1.167-2.501-0.667-3.334S227.334,315.442,227.334,315.442z"/>
</g>
</svg>
