<?xml version="1.0" standalone="no"?>
<!DOCTYPE svg PUBLIC "-//W3C//DTD SVG 20010904//EN"
 "http://www.w3.org/TR/2001/REC-SVG-20010904/DTD/svg10.dtd">
<svg version="1.0" xmlns="http://www.w3.org/2000/svg"
 width="201.000000pt" height="201.000000pt" viewBox="0 0 201.000000 201.000000"
 preserveAspectRatio="xMidYMid meet">
<metadata>
Created by potrace 1.11, written by Peter Selinger 2001-2013
</metadata>
<g transform="translate(0.000000,201.000000) scale(0.100000,-0.100000)"
fill="#000000" stroke="none">
<path d="M1018 1539 c-101 -27 -91 -176 12 -191 92 -14 150 99 85 165 -29 28
-59 36 -97 26z"/>
<path d="M1340 1513 c-61 -19 -94 -62 -92 -120 3 -88 101 -139 173 -90 44 30
61 63 55 110 -8 67 -78 119 -136 100z"/>
<path d="M669 1440 c-29 -17 -43 -66 -29 -100 15 -36 37 -50 79 -50 30 0 70
31 72 57 1 7 2 19 3 26 3 17 -14 49 -33 64 -19 15 -69 16 -92 3z"/>
<path d="M1620 1372 c-110 -49 -119 -190 -18 -252 116 -71 259 72 188 188 -35
58 -116 88 -170 64z"/>
<path d="M392 1230 c-27 -26 -28 -64 -2 -90 26 -26 60 -25 88 0 28 26 28 50 1
84 -25 31 -57 33 -87 6z"/>
<path d="M98 1095 c-61 -31 -85 -78 -79 -157 2 -33 56 -81 126 -113 40 -18 76
-38 80 -44 14 -23 -4 -58 -36 -72 -27 -11 -39 -10 -79 4 -64 23 -72 22 -92
-12 -15 -28 -15 -30 0 -44 34 -29 67 -40 132 -43 113 -5 185 53 185 149 0 74
-25 104 -129 155 -47 23 -86 48 -86 55 0 47 59 64 128 38 43 -16 43 -16 62 9
29 37 25 49 -23 70 -66 29 -137 31 -189 5z"/>
<path d="M1305 1082 c-9 -10 -5 -381 5 -406 19 -51 104 -77 173 -53 24 8 28
13 22 36 -10 39 -21 48 -54 43 -41 -6 -51 19 -48 114 l2 78 43 1 c23 1 47 3
52 3 6 1 10 20 10 42 l0 40 -54 0 -55 0 -3 52 -3 53 -43 1 c-23 0 -44 -2 -47
-4z"/>
<path d="M1903 1083 c-10 -3 -13 -59 -13 -228 0 -194 2 -224 16 -229 27 -10
71 -7 81 7 11 14 12 432 1 443 -9 9 -69 14 -85 7z"/>
<path d="M678 976 c-16 -8 -30 -11 -33 -5 -9 14 -95 11 -96 -3 -6 -64 -3 -326
4 -335 10 -14 54 -17 81 -7 13 5 16 26 16 130 0 112 2 124 19 134 27 14 68 13
78 -2 4 -7 10 -69 13 -138 l5 -125 39 -3 c21 -2 43 1 49 7 11 11 14 207 3 262
-14 75 -111 122 -178 85z"/>
<path d="M1025 979 c-33 -9 -76 -45 -102 -86 -27 -41 -24 -148 6 -197 31 -50
92 -78 151 -71 24 3 47 8 51 11 17 10 9 -44 -9 -67 -15 -17 -29 -22 -64 -22
-25 1 -55 6 -66 12 -32 17 -46 13 -65 -18 -14 -24 -14 -31 -4 -40 46 -38 162
-54 224 -30 41 15 81 57 89 92 5 25 8 264 5 373 -2 38 -140 66 -216 43z m101
-79 c22 0 20 -175 -2 -184 -33 -13 -71 -5 -93 18 -30 32 -33 106 -6 137 23 25
55 40 73 33 8 -2 20 -4 28 -4z"/>
<path d="M1625 976 c-69 -32 -105 -101 -101 -194 5 -100 66 -162 165 -167 53
-2 130 21 138 41 3 8 -2 25 -11 39 -14 21 -20 23 -43 14 -15 -6 -46 -11 -67
-11 -31 0 -45 5 -63 26 -13 15 -23 30 -23 34 0 4 46 7 103 7 142 0 134 -4 126
63 -4 31 -12 68 -18 82 -29 61 -140 97 -206 66z m101 -74 c17 -11 35 -50 25
-56 -4 -3 -35 -5 -68 -4 -53 2 -60 4 -55 20 9 36 68 60 98 40z"/>
<path d="M385 968 c-3 -7 -4 -87 -2 -178 l2 -165 40 -2 c22 0 45 3 51 8 7 6
10 67 10 176 l-1 168 -48 3 c-32 2 -49 -1 -52 -10z"/>
</g>
</svg>
